<?xml version="1.0" encoding="utf-8"?>
<!-- Generator: Adobe Illustrator 16.0.0, SVG Export Plug-In . SVG Version: 6.00 Build 0)  -->
<!DOCTYPE svg PUBLIC "-//W3C//DTD SVG 1.1//EN" "http://www.w3.org/Graphics/SVG/1.1/DTD/svg11.dtd">
<svg version="1.1" id="Layer_1" xmlns="http://www.w3.org/2000/svg" xmlns:xlink="http://www.w3.org/1999/xlink" x="0px" y="0px"
	 width="612px" height="792px" viewBox="0 0 612 792" enable-background="new 0 0 612 792" xml:space="preserve">
<path fill="#FFFFFF" d="M558,792c0,0,0-576-504-576C54,18,558,0,558,0V792z"/>
<path fill="#E2E2E4" d="M612,86.606C612,86.606,720.572,0,670.072,0C520.486,0,10.105,22.099,10.105,220.099
	C492.684,300.694,533.578,792,533.578,792l4.5-310.914c-20.334-53.079-107.994-152.992-107.994-152.992
	c-80.995-68.997-128.994-121.495-269.987-164.992c65.664-37.873,181.581-58.76,304.485-70.496C494.606,89.437,612,86.606,612,86.606
	z"/>
</svg>
