<?xml version="1.0" encoding="utf-8"?>
<!-- Generator: Adobe Illustrator 16.0.0, SVG Export Plug-In . SVG Version: 6.00 Build 0)  -->
<!DOCTYPE svg PUBLIC "-//W3C//DTD SVG 1.1//EN" "http://www.w3.org/Graphics/SVG/1.1/DTD/svg11.dtd">
<svg version="1.1" id="Layer_1" xmlns="http://www.w3.org/2000/svg" xmlns:xlink="http://www.w3.org/1999/xlink" x="0px" y="0px"
	 viewBox="0 0 612 792" enable-background="new 0 0 612 792" xml:space="preserve">
<path fill="#F8F8F9" d="M612,804h-78.424c0,0,3.15-148.407-51.076-277.5C411.439,357.335,269.811,198.134,54,216
	C54,18,612,26.5,612,26.5V804z"/>
<g>
	<g>
		<g>
			<g>
				<path fill="#F2F2F2" d="M612,38.5V0.911c0,0-601.896,21.188-601.896,219.188C492.684,300.694,533.576,792,533.576,792
					l2.812-194.198c-20.334-53.079-83.904-177.749-126.013-227.202c-68.979-81.01-185.547-145.936-326.541-189.433
					c46-67.333,239.096-116.931,362-128.667C475.859,49.331,612,38.5,612,38.5z"/>
			</g>
		</g>
	</g>
</g>
</svg>
