<?xml version="1.0" encoding="utf-8"?>
<!-- Generator: Adobe Illustrator 16.0.0, SVG Export Plug-In . SVG Version: 6.00 Build 0)  -->
<!DOCTYPE svg PUBLIC "-//W3C//DTD SVG 1.1//EN" "http://www.w3.org/Graphics/SVG/1.1/DTD/svg11.dtd">
<svg version="1.1" id="Layer_1" xmlns="http://www.w3.org/2000/svg" xmlns:xlink="http://www.w3.org/1999/xlink" x="0px" y="0px"
	  viewBox="0 0 47.995 48" enable-background="new 0 0 47.995 48" xml:space="preserve">
<g>
	<g>
		<path fill="#38559B" d="M37.5,15h3V7.5h-6c-5.512,0-9,4.321-9,10.5v4.5h-6V30h6v18H33V30h6l1.5-7.5H33v-3
			C33,16.5,34.503,15,37.5,15z"/>
	</g>
</g>
<path fill="#FFFFFF" d="M33,48V30h6l1.5-7.5H33v-3c0-3,1.503-4.5,4.5-4.5h3V7.5c-1.5,0-3.36,0-6,0c-5.512,0-9,4.321-9,10.5v4.5h-6
	V30h6v18H33z"/>
</svg>
