<?xml version="1.0" encoding="utf-8"?>
<!-- Generator: Adobe Illustrator 16.0.0, SVG Export Plug-In . SVG Version: 6.00 Build 0)  -->
<!DOCTYPE svg PUBLIC "-//W3C//DTD SVG 1.1//EN" "http://www.w3.org/Graphics/SVG/1.1/DTD/svg11.dtd">
<svg version="1.1" id="Layer_1" xmlns="http://www.w3.org/2000/svg" xmlns:xlink="http://www.w3.org/1999/xlink" x="0px" y="0px"
	  viewBox="0 0 48 48" enable-background="new 0 0 48 48" xml:space="preserve">
<g>
	<g>
		<path fill="#FFFFFF" d="M23.887,26.063c-0.854-0.6-2.484-2.068-2.484-2.934c0-1.01,0.288-1.508,1.812-2.699
			c1.558-1.219,2.664-2.672,2.664-4.668c0-2.371-1.02-5.264-3.004-5.264h3.375l1.5-1.5c0,0-6.888,0-9.246,0
			c-4.23,0-8.213,2.969-8.213,6.68c0,3.791,2.884,6.74,7.187,6.74c0.3,0,0.591-0.068,0.875-0.088
			c-0.282,0.533-0.477,1.105-0.477,1.73c0,1.055,0.565,1.896,1.281,2.594c-0.537,0-1.063,0.006-1.635,0.006
			c-5.239,0.004-9.273,3.338-9.273,6.797c0,3.408,4.422,5.543,9.662,5.543c5.974,0,9.274-3.393,9.274-6.801
			C27.186,29.468,26.379,27.831,23.887,26.063z M18.845,21.337c-2.432-0.072-4.743-2.721-5.162-5.91
			c-0.419-3.195,1.212-5.639,3.642-5.566c2.43,0.074,4.743,2.637,5.162,5.828C22.907,18.88,21.276,21.407,18.845,21.337z
			 M17.892,37.489c-3.622,0-6.237-2.293-6.237-5.047c0-2.697,3.245-4.945,6.869-4.904c0.843,0.008,1.631,0.145,2.346,0.371
			c1.967,1.371,3.376,2.145,3.778,3.701c0.07,0.318,0.114,0.643,0.114,0.973C24.762,35.337,22.985,37.489,17.892,37.489z
			 M35.25,20.989v-4.502h-3v4.502h-4.5v2.998h4.5v4.502h3v-4.502h4.5v-2.998H35.25z"/>
	</g>
</g>
</svg>
