<?xml version="1.0" encoding="utf-8"?>
<!-- Generator: Adobe Illustrator 17.1.0, SVG Export Plug-In . SVG Version: 6.00 Build 0)  -->
<!DOCTYPE svg PUBLIC "-//W3C//DTD SVG 1.1//EN" "http://www.w3.org/Graphics/SVG/1.1/DTD/svg11.dtd">
<svg version="1.1" id="Layer_1" xmlns="http://www.w3.org/2000/svg" xmlns:xlink="http://www.w3.org/1999/xlink" x="0px" y="0px"
	 viewBox="0 0 10 8" enable-background="new 0 0 10 8" xml:space="preserve">
<path fill="#FFFFFF" d="M5,4.4c-0.8,0-5-3.3-5-3.3V0.8C0,0.4,0.4,0,0.8,0h8.3C9.6,0,10,0.4,10,0.8l0,0.4C10,1.2,5.9,4.4,5,4.4z
	 M5,5.5c0.9,0,5-3.1,5-3.1l0,4.8C10,7.7,9.6,8,9.2,8H0.8C0.4,8,0,7.7,0,7.2l0-4.8C0.1,2.4,4.2,5.5,5,5.5z"/>
</svg>
