<?xml version="1.0" encoding="utf-8"?>
<!-- Generator: Adobe Illustrator 16.0.0, SVG Export Plug-In . SVG Version: 6.00 Build 0)  -->
<!DOCTYPE svg PUBLIC "-//W3C//DTD SVG 1.1//EN" "http://www.w3.org/Graphics/SVG/1.1/DTD/svg11.dtd">
<svg version="1.1" id="Layer_1" xmlns="http://www.w3.org/2000/svg" xmlns:xlink="http://www.w3.org/1999/xlink" x="0px" y="0px"
	  viewBox="0 0 48 48" enable-background="new 0 0 48 48" xml:space="preserve">
<path fill="#FFFFFF" d="M29.181,23.856c-0.17-3.457-2.632-5.535-5.605-5.535h-0.112c-3.432,0-5.334,2.812-5.334,6.006
	c0,3.578,2.302,5.838,5.321,5.838c3.365,0,5.578-2.57,5.738-5.609L29.181,23.856L29.181,23.856z M23.479,15.228
	c2.293,0,4.449,1.055,6.031,2.709v0.008c0-0.795,0.513-1.393,1.225-1.393l0.18-0.002c1.113,0,1.343,1.098,1.343,1.445l0.005,12.346
	c-0.079,0.809,0.8,1.227,1.287,0.707c1.902-2.037,4.177-10.475-1.183-15.361c-4.994-4.557-11.696-3.807-15.261-1.244
	c-3.789,2.723-6.213,8.752-3.858,14.416c2.567,6.176,9.914,8.018,14.28,6.18c2.211-0.93,3.231,2.186,0.936,3.203
	c-3.469,1.541-13.126,1.385-17.638-6.762C7.778,25.981,7.94,16.304,16.024,11.29c6.184-3.836,14.337-2.773,19.254,2.578
	c5.139,5.594,4.839,16.072-0.174,20.145c-2.271,1.85-5.645,0.049-5.623-2.646l-0.023-0.881c-1.581,1.635-3.686,2.588-5.979,2.588
	c-4.53,0-8.516-4.152-8.516-8.875C14.964,19.431,18.949,15.228,23.479,15.228L23.479,15.228"/>
</svg>
