<?xml version="1.0" encoding="utf-8"?>
<!-- Generator: Adobe Illustrator 16.0.0, SVG Export Plug-In . SVG Version: 6.00 Build 0)  -->
<!DOCTYPE svg PUBLIC "-//W3C//DTD SVG 1.1//EN" "http://www.w3.org/Graphics/SVG/1.1/DTD/svg11.dtd">
<svg version="1.1" id="Layer_1" xmlns="http://www.w3.org/2000/svg" xmlns:xlink="http://www.w3.org/1999/xlink" x="0px" y="0px"
	 width="64.027px" height="73.985px" viewBox="0 0 64.027 73.985" enable-background="new 0 0 64.027 73.985" xml:space="preserve">
<g>
	<g>
		<g>
			<path fill-rule="evenodd" clip-rule="evenodd" fill="#292C33" d="M61.076,21.799l-2.188-0.588V18.94c0-2.209-1.791-4-4-4H35.551
				L16.859,9.918c-2.124-0.571-4.306,0.693-4.875,2.822l-0.588,2.2H9.139c-2.209,0-4,1.791-4,4V38.36L0.137,57.079
				c-0.569,2.13,0.691,4.318,2.814,4.889l2.188,0.588v2.259c0,2.209,1.791,4,4,4h19.296l18.733,5.033
				c2.124,0.57,4.306-0.693,4.875-2.822l0.591-2.211h2.255c2.209,0,4-1.791,4-4V45.407l5.002-18.72
				C64.46,24.558,63.2,22.369,61.076,21.799z M48.198,69.993L3.981,58.112l11.848-44.339l44.217,11.881L48.198,69.993z"/>
		</g>
	</g>
	<g>
		<path fill="none" d="M61.076,21.799l-2.188-0.588V18.94c0-2.209-1.791-4-4-4H35.551L16.859,9.918
			c-2.124-0.571-4.306,0.693-4.875,2.822l-0.588,2.2H9.139c-2.209,0-4,1.791-4,4V38.36L0.137,57.079
			c-0.569,2.13,0.691,4.318,2.814,4.889l2.188,0.588v2.259c0,2.209,1.791,4,4,4h19.296l18.733,5.033
			c2.124,0.57,4.306-0.693,4.875-2.822l0.591-2.211h2.255c2.209,0,4-1.791,4-4V45.407l5.002-18.72
			C64.46,24.558,63.2,22.369,61.076,21.799z M48.198,69.993L3.981,58.112l11.848-44.339l44.217,11.881L48.198,69.993z"/>
	</g>
	<path fill-rule="evenodd" clip-rule="evenodd" fill="#EE3443" d="M47.153,39.906h-0.004c-5.496,0-9.951-4.456-9.951-9.951v-5.018
		c0-1.104,0.888-2,1.984-2c1.096,0,1.984,0.896,1.984,2v5.031c0,3.296,2.672,5.969,5.969,5.969s5.969-2.672,5.969-5.969v-20
		C53.104,6.672,50.432,4,47.136,4s-5.969,2.672-5.969,5.969v5h-3.969V9.951C37.198,4.455,41.654,0,47.149,0h0.004
		c5.496,0,9.951,4.455,9.951,9.951v20.004C57.104,35.451,52.649,39.906,47.153,39.906z"/>
</g>
</svg>
