<?xml version="1.0" encoding="utf-8"?>
<!-- Generator: Adobe Illustrator 16.0.0, SVG Export Plug-In . SVG Version: 6.00 Build 0)  -->
<!DOCTYPE svg PUBLIC "-//W3C//DTD SVG 1.1//EN" "http://www.w3.org/Graphics/SVG/1.1/DTD/svg11.dtd">
<svg version="1.1" id="Layer_1" xmlns="http://www.w3.org/2000/svg" xmlns:xlink="http://www.w3.org/1999/xlink" x="0px" y="0px"
	 width="63.255px" height="50.23px" viewBox="0 0 63.255 50.23" enable-background="new 0 0 63.255 50.23" xml:space="preserve">
<g>
	<path fill="#292C33" d="M34.246,15.247H4.759C2.131,15.247,0,17.403,0,20.063v16.604c0,2.659,2.131,4.815,4.759,4.815h6.926
		l-2.942,8.021c-0.077,0.212-0.017,0.451,0.155,0.598c0.099,0.085,0.221,0.129,0.346,0.129c0.088,0,0.178-0.023,0.261-0.07
		l15.155-8.677h9.586c2.628,0,4.76-2.156,4.76-4.815V20.063C39.005,17.403,36.874,15.247,34.246,15.247z"/>
	<path fill="#78C143" d="M58.498,0H29.007c-2.625,0-4.757,2.156-4.757,4.816v7.027h9.856c4.962,0,8.997,4.085,8.997,9.104v7.868
		l10.648,6.097c0.195,0.111,0.437,0.088,0.606-0.059c0.172-0.146,0.232-0.386,0.155-0.598l-2.942-8.021h6.928
		c2.626,0,4.757-2.156,4.757-4.815V4.816C63.255,2.156,61.124,0,58.498,0z"/>
</g>
</svg>
