<?xml version="1.0" encoding="utf-8"?>
<!-- Generator: Adobe Illustrator 16.0.0, SVG Export Plug-In . SVG Version: 6.00 Build 0)  -->
<!DOCTYPE svg PUBLIC "-//W3C//DTD SVG 1.1//EN" "http://www.w3.org/Graphics/SVG/1.1/DTD/svg11.dtd">
<svg version="1.1" id="Layer_1" xmlns="http://www.w3.org/2000/svg" xmlns:xlink="http://www.w3.org/1999/xlink" x="0px" y="0px"
	 width="67.5px" height="60.861px" viewBox="0 0 67.5 60.861" enable-background="new 0 0 67.5 60.861" xml:space="preserve">
<g>
	<path fill-rule="evenodd" clip-rule="evenodd" fill="#292C33" d="M25.667,38.659c-3.748-2.928-6.167-7.479-6.167-12.604
		c0-1.923,0.341-3.767,0.963-5.475c-0.249,0.148-0.496,0.3-0.741,0.456c-3.76,2.398-6.946,5.611-9.339,9.394
		c2.394,3.783,5.579,6.995,9.339,9.394c0.995,0.635,2.028,1.191,3.082,1.698l-4.455,4.455c-6.353-3.533-11.55-8.96-14.849-15.547
		c5.945-11.872,18.043-20,32-20c5.368,0,10.455,1.212,15.028,3.367L25.667,38.659z M29.5,18.056c-3.313,0-6,2.687-6,6
		c0,3.314,2.687,6,6,6c3.314,0,6-2.686,6-6C35.5,20.742,32.814,18.056,29.5,18.056z M35.5,42.056c-1.844,0-3.608-0.328-5.257-0.902
		l20.361-20.361c0.575,1.649,0.896,3.417,0.896,5.263C51.5,34.893,44.337,42.056,35.5,42.056z M27.966,43.431
		c2.446,0.65,4.974,1,7.534,1c5.598,0,11.054-1.593,15.778-4.606c3.76-2.398,6.946-5.611,9.34-9.394
		c-2.394-3.782-5.58-6.995-9.34-9.394c-0.188-0.12-0.378-0.235-0.568-0.35l4.337-4.336c5.262,3.494,9.58,8.343,12.453,14.08
		c-5.945,11.873-18.043,20-32,20c-4.327,0-8.475-0.784-12.317-2.216L27.966,43.431z"/>
	<path fill-rule="evenodd" clip-rule="evenodd" fill="#EE3443" d="M0.732,56.594L56.594,0.732c0.977-0.977,2.56-0.977,3.536,0
		c0.976,0.976,0.976,2.559,0,3.535L4.268,60.129c-0.976,0.977-2.559,0.977-3.535,0C-0.244,59.153-0.244,57.57,0.732,56.594z"/>
</g>
</svg>
