<?xml version="1.0" encoding="utf-8"?>
<!-- Generator: Adobe Illustrator 16.0.0, SVG Export Plug-In . SVG Version: 6.00 Build 0)  -->
<!DOCTYPE svg PUBLIC "-//W3C//DTD SVG 1.1//EN" "http://www.w3.org/Graphics/SVG/1.1/DTD/svg11.dtd">
<svg version="1.1" id="Layer_1" xmlns="http://www.w3.org/2000/svg" xmlns:xlink="http://www.w3.org/1999/xlink" x="0px" y="0px"
	 width="58.981px" height="63.877px" viewBox="0 0 58.981 63.877" enable-background="new 0 0 58.981 63.877" xml:space="preserve">
<g>
	<g>
		<g>
			<path fill="#292C33" d="M34.88,43.195c-0.49,1.052-0.538,2.238-0.135,3.339c0.399,1.089,1.188,1.954,2.225,2.433
				c0.567,0.263,1.175,0.396,1.804,0.396c1.7,0,3.258-0.982,3.969-2.503c1.014-2.168,0.072-4.757-2.097-5.771
				c-0.574-0.268-1.187-0.404-1.82-0.404C37.139,40.685,35.59,41.67,34.88,43.195z M58.958,35.442
				c-0.303-5.242-3.78-9.762-8.497-11.768c-0.881,1.09-1.804,2.203-2.76,3.324c3.894,1.128,6.977,4.644,7.21,8.677
				c0.145,2.514-0.571,5.027-2.321,8.149c-3.335,5.948-12.025,11.969-22.183,11.968c-2.425,0-4.822-0.353-7.124-1.048
				c-0.455-0.138-0.903-0.287-1.346-0.444c-0.063,0.075-0.13,0.149-0.2,0.22c-0.643,0.642-1.49,1.006-2.395,1.035l-1.163,1.604
				c1.266,0.564,2.577,1.053,3.931,1.462c2.683,0.811,5.475,1.221,8.297,1.221c0.001,0,0.001,0,0.002,0
				c5.343,0,10.709-1.456,15.517-4.209c4.455-2.552,8.077-6.043,10.201-9.83C57.46,43.423,59.207,39.758,58.958,35.442z
				 M15.724,31.589c-0.575-0.274-1.192-0.413-1.836-0.413c-1.686,0-3.238,0.971-3.954,2.474c-0.492,1.032-0.545,2.208-0.148,3.308
				c0.398,1.106,1.193,1.984,2.24,2.47c0.586,0.272,1.208,0.411,1.85,0.411c1.671,0,3.21-0.972,3.921-2.476
				C18.813,35.208,17.883,32.619,15.724,31.589z M20.467,10.958c-2.035,0-4.095,0.779-5.799,2.193
				c-1.605,1.333-2.728,3.103-3.157,4.983c-0.49,2.144-0.029,4.267,1.265,5.823c1.242,1.494,3.081,2.316,5.18,2.316
				c2.035,0,4.095-0.779,5.799-2.193c1.606-1.333,2.728-3.103,3.157-4.984c0.49-2.144,0.029-4.266-1.265-5.823
				C24.406,11.781,22.566,10.958,20.467,10.958z M23.663,18.356c-0.268,1.172-0.991,2.296-2.037,3.164
				c-1.107,0.919-2.41,1.425-3.67,1.425c-1.09,0-2.02-0.396-2.616-1.114c-0.626-0.752-0.837-1.829-0.579-2.954
				c0.268-1.172,0.991-2.296,2.037-3.164c1.107-0.919,2.41-1.425,3.67-1.425c1.09,0,2.02,0.396,2.617,1.114
				C23.709,16.155,23.92,17.231,23.663,18.356z M7.267,16.997c2.557-5.13,7.398-9.476,13.289-11.923
				c1.659-0.689,3.195-1.024,4.696-1.024c1.288,0,2.51,0.248,3.735,0.755c2.591,1.074,4.829,3.399,5.841,6.067
				c0.61,1.612,1.054,4.116-0.302,6.897c-0.565,1.16-0.846,2.615-0.789,4.095c0.022,0.595,0.122,1.157,0.288,1.678
				c1.304-1.201,2.638-2.394,3.972-3.555c0.05-0.161,0.107-0.311,0.173-0.445c1.575-3.229,1.73-6.724,0.448-10.104
				c-1.415-3.734-4.436-6.864-8.078-8.374C28.836,0.358,27.057,0,25.252,0C23.236,0,21.132,0.449,19,1.335
				c-6.789,2.82-12.393,7.88-15.375,13.882L3.605,15.26c-2.774,5.931-3.84,10.65-3.562,15.782c0.344,6.37,2.605,12.33,6.54,17.233
				c0.312,0.389,0.635,0.769,0.965,1.141l3.312-2.396c0-0.005,0.001-0.011,0.001-0.016c-3.988-4.367-6.438-9.998-6.771-16.18
				C3.852,26.409,4.802,22.272,7.267,16.997z"/>
		</g>
	</g>
	<path fill="#EE3443" d="M8.513,62.41c0.083,0.083,0.167,0.169,0.251,0.254c0.085,0.088,0.17,0.175,0.256,0.261l0,0l0,0
		c0.466,0.465,1.007,0.953,1.598,0.953c0.047,0,0.095-0.003,0.143-0.009c0.396-0.054,0.662-0.341,1.021-0.816l7.339-9.657
		c0.575,0.145,1.21-0.005,1.659-0.455c0.411-0.411,0.572-0.976,0.487-1.51c0.533,0.085,1.1-0.076,1.511-0.486
		c0.533-0.533,0.647-1.326,0.345-1.973c2.25-1.723,11.875-11,14.131-13.253C47.129,25.85,58.542,11.53,56.741,9.73
		c-1.8-1.799-16.132,9.605-26.008,19.474c-2.256,2.253-11.54,11.871-13.265,14.119c-0.646-0.302-1.44-0.188-1.974,0.345
		c-0.411,0.411-0.572,0.977-0.487,1.51c-0.534-0.085-1.101,0.076-1.511,0.486c-0.402,0.402-0.566,0.953-0.492,1.477l-9.684,7.497
		c-0.487,0.366-0.738,0.745-0.767,1.158c-0.039,0.56,0.345,1.025,0.765,1.445 M10.394,61.019c-0.081-0.082-0.161-0.165-0.243-0.246
		l-4.528-4.525c-0.084-0.084-0.168-0.166-0.247-0.241l7.491-5.917l0.823,0.823l-2.027,2.602c-0.221,0.283-0.2,0.684,0.047,0.943
		c0.142,0.148,0.332,0.225,0.524,0.225c0.145,0,0.291-0.043,0.416-0.132l2.747-1.932l0.831,0.83L10.394,61.019z"/>
</g>
</svg>
