<?xml version="1.0" encoding="utf-8"?>
<!-- Generator: Adobe Illustrator 16.0.0, SVG Export Plug-In . SVG Version: 6.00 Build 0)  -->
<!DOCTYPE svg PUBLIC "-//W3C//DTD SVG 1.1//EN" "http://www.w3.org/Graphics/SVG/1.1/DTD/svg11.dtd">
<svg version="1.1" id="Layer_1" xmlns="http://www.w3.org/2000/svg" xmlns:xlink="http://www.w3.org/1999/xlink" x="0px" y="0px"
	  viewBox="0 0 48 48" enable-background="new 0 0 48 48" xml:space="preserve">
<path fill="#FFFFFF" d="M23.646,32.831h1.973c0,0,0.595-0.062,0.899-0.371c0.281-0.285,0.271-0.82,0.271-0.82
	s-0.039-2.504,1.189-2.873c1.211-0.363,2.767,2.42,4.414,3.49c1.246,0.811,2.193,0.633,2.193,0.633l4.408-0.059
	c0,0,2.305-0.135,1.211-1.85c-0.089-0.139-0.637-1.268-3.276-3.586c-2.764-2.428-2.394-2.035,0.936-6.232
	c2.026-2.557,2.837-4.117,2.584-4.785c-0.241-0.637-1.731-0.469-1.731-0.469l-4.963,0.029c0,0-0.367-0.049-0.641,0.107
	c-0.267,0.15-0.438,0.504-0.438,0.504s-0.786,1.977-1.834,3.66c-2.209,3.549-3.092,3.736-3.453,3.516
	c-0.84-0.514-0.631-2.062-0.631-3.164c0-3.441,0.553-4.875-1.074-5.246c-0.539-0.123-0.936-0.205-2.315-0.219
	c-1.771-0.016-3.269,0.006-4.117,0.398c-0.564,0.262-1,0.846-0.735,0.879c0.328,0.041,1.071,0.189,1.465,0.695
	c0.509,0.656,0.49,2.125,0.49,2.125s0.293,4.051-0.682,4.553c-0.669,0.346-1.586-0.359-3.557-3.58
	c-1.009-1.648-1.771-3.473-1.771-3.473s-0.146-0.34-0.409-0.523c-0.318-0.221-0.763-0.291-0.763-0.291l-4.715,0.029
	c0,0-0.708,0.018-0.967,0.311c-0.231,0.258-0.019,0.793-0.019,0.793s3.691,8.172,7.871,12.291
	C19.294,33.079,23.646,32.831,23.646,32.831L23.646,32.831L23.646,32.831z"/>
</svg>
