<?xml version="1.0" encoding="utf-8"?>
<!-- Generator: Adobe Illustrator 16.0.0, SVG Export Plug-In . SVG Version: 6.00 Build 0)  -->
<!DOCTYPE svg PUBLIC "-//W3C//DTD SVG 1.1//EN" "http://www.w3.org/Graphics/SVG/1.1/DTD/svg11.dtd">
<svg version="1.1" id="Layer_1" xmlns="http://www.w3.org/2000/svg" xmlns:xlink="http://www.w3.org/1999/xlink" x="0px" y="0px"
	  viewBox="0 0 48 48" enable-background="new 0 0 48 48" xml:space="preserve">
<path fill="#FFFFFF" d="M31.04,7.694h-4.763c-4.681,0-8.649,3.74-8.649,11c0,4.357,1.922,7.568,5.348,9.152l-6.392,12.145
	c-0.21,0.396,0,0.703,0.333,0.703h2.967c0.251,0,0.418-0.088,0.502-0.307l5.808-11.924h2.089v11.924
	c0,0.133,0.126,0.307,0.292,0.307h2.592c0.251,0,0.334-0.131,0.334-0.35V8.136C31.5,7.827,31.333,7.694,31.04,7.694L31.04,7.694z
	 M28.282,25.647h-1.755c-2.758,0-5.432-2.113-5.432-7.393c0-5.5,2.507-7.744,5.056-7.744h2.131V25.647z"/>
</svg>
