<?xml version="1.0" encoding="utf-8"?>
<!-- Generator: Adobe Illustrator 16.0.0, SVG Export Plug-In . SVG Version: 6.00 Build 0)  -->
<!DOCTYPE svg PUBLIC "-//W3C//DTD SVG 1.1//EN" "http://www.w3.org/Graphics/SVG/1.1/DTD/svg11.dtd">
<svg version="1.1" id="Layer_1" xmlns="http://www.w3.org/2000/svg" xmlns:xlink="http://www.w3.org/1999/xlink" x="0px" y="0px"
	 width="612px" height="792px" viewBox="0 0 612 792" enable-background="new 0 0 612 792" xml:space="preserve">
<path fill="#FFFFFF" d="M54,0c0,0,504,18,504,216C54,216,54,792,54,792V0z"/>
<path fill="#E2E2E4" d="M147.5,81.5c124,9,241.859,32.548,307.523,70.421C315.632,178.993,215.768,251.857,146,342.577
	c0,0-57.6,84.96-72,142.271L76,792c0,0-2-576,502-576C578,102.389,265.5,19.5,105.5,7.5C52.59,3.532,11,0,11,0v76.5
	C11,76.5,117.476,78.332,147.5,81.5z"/>
</svg>
