<?xml version="1.0" encoding="utf-8"?>
<!-- Generator: Adobe Illustrator 18.0.0, SVG Export Plug-In . SVG Version: 6.00 Build 0)  -->
<!DOCTYPE svg PUBLIC "-//W3C//DTD SVG 1.1//EN" "http://www.w3.org/Graphics/SVG/1.1/DTD/svg11.dtd">
<svg version="1.1" id="Layer_1" xmlns="http://www.w3.org/2000/svg" xmlns:xlink="http://www.w3.org/1999/xlink" x="0px" y="0px"
	 viewBox="0 0 22 20" enable-background="new 0 0 22 20" xml:space="preserve">
<g>
	<g>
		<path fill-rule="evenodd" clip-rule="evenodd" fill="#D3D4DA" d="M77,5C38.4,5,7,36.3,7,75c0,38.7,31.3,70,70,70
			c38.7,0,70-31.3,70-70C147,36.3,115.7,5,77,5z M77,140c-35.9,0-65-29.1-65-65s29.1-65,65-65c35.9,0,65,29.1,65,65
			S112.9,140,77,140z M109.1,75c-0.1-4.6-4.3-7.8-4.3-7.8s-13.8-8-29.1-18.7C62.6,39.4,59,53.2,59,53.2V97c0,0,3.2,13.3,16.7,4.7
			C90.2,92.3,104.7,83,104.7,83s4.2-3.2,4.3-7.8h0C109.1,75.2,109.1,75.1,109.1,75C109.1,75.1,109.1,75,109.1,75L109.1,75z"/>
	</g>
</g>
<path fill="#EE3442" d="M0,0h4v12H0V0L0,0z M22,11c0,1.1-0.9,2-2,2h-6.3l1,4.6v0.3c0,0.4-0.2,0.8-0.4,1.1l-1.1,1l-6.6-6.6
	C6.2,13.1,6,12.6,6,12V2c0-1.1,0.9-2,2-2h9c0.8,0,1.5,0.5,1.8,1.2l3,7.1c0.1,0.2,0.1,0.5,0.1,0.7L22,11L22,11C22,10.9,22,11,22,11
	L22,11z"/>
</svg>
