<?xml version="1.0" encoding="utf-8"?>
<!-- Generator: Adobe Illustrator 16.0.0, SVG Export Plug-In . SVG Version: 6.00 Build 0)  -->
<!DOCTYPE svg PUBLIC "-//W3C//DTD SVG 1.1//EN" "http://www.w3.org/Graphics/SVG/1.1/DTD/svg11.dtd">
<svg version="1.1" id="Layer_1" xmlns="http://www.w3.org/2000/svg" xmlns:xlink="http://www.w3.org/1999/xlink" x="0px" y="0px"
	 viewBox="0 0 13.796 14.526" enable-background="new 0 0 13.796 14.526" xml:space="preserve">
<path fill-rule="evenodd" clip-rule="evenodd" fill="#D3D4DA" d="M13.691,11.839c0.237,1.124,0,2.687,0,2.687s-5.964,0.002-6.852,0
	c-1.837-0.001-6.746,0-6.746,0s-0.253-1.752,0.076-2.687c0.196-0.425,0.501-0.786,1.013-0.938c1.544-0.472,3.405-1.059,3.405-1.059
	s-0.117,0.285-0.117,0.587c0,0.3,0.506,2.644,2.467,3.632c1.961-0.988,2.465-3.332,2.465-3.632c0-0.302-0.121-0.587-0.121-0.587
	s1.864,0.587,3.403,1.059C13.187,11.053,13.501,11.414,13.691,11.839z M5.998,10.43c0-0.284,0.468-0.587,0.468-0.587h0.471h0.469
	c0,0,0.469,0.303,0.469,0.587c0,0.136-0.705,0.703-0.705,0.703s0.705,1.356,0.705,1.641c0,0.252-0.938,0.819-0.938,0.819
	s-0.938-0.567-0.938-0.819c0-0.284,0.704-1.641,0.704-1.641S5.998,10.565,5.998,10.43z M10.343,3.047
	c0,0.839-0.115,1.404-0.115,1.404s0.469-0.076,0.469,0.705c0,0.629-0.53,1.133-0.825,1.875C8.917,8.634,8.189,9.374,6.936,9.374
	C5.687,9.374,4.96,8.634,4,7.031C3.707,6.289,3.178,5.785,3.178,5.156c0-0.781,0.468-0.705,0.468-0.705S3.527,3.887,3.527,3.047
	C3.527,2.207,3.919,0,6.936,0C9.952,0,10.343,2.207,10.343,3.047z M5.526,2.108c-0.368,0-1.408,0.689-1.408,1.525
	c0,0.837,0.237,1.758,0.237,1.758L4,4.688c0,0-0.354-0.119-0.354,0.35c0,0.67,0.272,0.939,0.708,1.758
	C5.46,9.024,6.298,8.906,6.936,8.906c0.642,0,1.478,0.118,2.587-2.111c0.432-0.818,0.705-1.088,0.705-1.758
	c0-0.469-0.356-0.35-0.356-0.35L9.523,5.392c0,0,0.21-0.838,0.23-1.641C6.451,3.749,5.526,2.108,5.526,2.108z M30.417,11.72
	c0.261,0.955-0.188,2.688-0.188,2.688s-3.148,0-4.656,0h-1.688c-1.854,0-6.469-0.016-6.469-0.016s-0.453-2.109-0.158-2.766
	c0.188-0.418,0.491-0.773,0.988-0.923c1.506-0.458,3.324-1.03,3.324-1.03s-0.115,0.277-0.115,0.572c0,0.293,0.491,2.581,2.407,3.546
	c1.912-0.965,2.402-3.253,2.402-3.546c0-0.295-0.115-0.572-0.115-0.572s1.813,0.572,3.317,1.03
	C29.962,10.853,30.23,11.303,30.417,11.72z M27.183,2.86c0,0.507-0.115,1.488-0.115,1.488s0.459-0.066,0.459,0.686
	c0,0.752-0.672,1.471-0.688,1.487c0,1.978,1.492,2.288,1.492,2.288S28.2,9.151,26.954,9.151s-1.606-0.687-1.606-0.687
	s-0.803,0.687-1.491,0.687s-1.492-0.687-1.492-0.687s-0.36,0.687-1.606,0.687c-1.245,0-1.376-0.343-1.376-0.343
	s1.491-0.311,1.491-2.288c-0.017-0.017-0.688-0.735-0.688-1.487c0-0.751,0.459-0.686,0.459-0.686s-0.114-0.981-0.114-1.488
	S20.905,0,23.856,0C26.806,0,27.183,2.353,27.183,2.86z M21.121,4.086c0.055,0.685,0.211,1.291,0.211,1.291
	s-0.287-0.801-0.459-0.801s-0.344,0.133-0.344,0.458c0,0.696,1.912,3.661,3.327,3.661s3.327-2.965,3.327-3.661
	c0-0.324-0.172-0.458-0.345-0.458c-0.172,0-0.459,0.801-0.459,0.801s0.23-0.877,0.23-1.716s-1.033-1.602-1.033-1.602
	s-0.21,1.602-4.131,1.602C21.381,3.661,21.182,3.985,21.121,4.086z"/>
</svg>
