<?xml version="1.0" encoding="utf-8"?>
<!-- Generator: Adobe Illustrator 16.0.0, SVG Export Plug-In . SVG Version: 6.00 Build 0)  -->
<!DOCTYPE svg PUBLIC "-//W3C//DTD SVG 1.1//EN" "http://www.w3.org/Graphics/SVG/1.1/DTD/svg11.dtd">
<svg version="1.1" id="Layer_1" xmlns="http://www.w3.org/2000/svg" xmlns:xlink="http://www.w3.org/1999/xlink" x="0px" y="0px"
	  viewBox="0 0 48 48" enable-background="new 0 0 48 48" xml:space="preserve">
<g>
	<g>
		<path fill="#FFFFFF" d="M24.001,24.194c4.182,0,7.572-3.568,7.572-7.971s-3.391-7.973-7.572-7.973
			c-4.184,0-7.574,3.57-7.574,7.973S19.817,24.194,24.001,24.194z M24.001,12.302c2.057,0,3.725,1.756,3.725,3.922
			s-1.668,3.922-3.725,3.922c-2.059,0-3.727-1.756-3.727-3.922S21.942,12.302,24.001,12.302z M32.729,25.167
			c-0.426-0.904-1.611-1.656-3.186-0.35c-2.127,1.764-5.543,1.764-5.543,1.764s-3.418,0-5.547-1.764
			c-1.574-1.307-2.758-0.555-3.186,0.35c-0.744,1.576,0.098,2.338,1.998,3.623c1.623,1.098,3.854,1.508,5.295,1.66l-1.203,1.266
			c-1.693,1.783-3.328,3.504-4.463,4.697c-0.678,0.713-0.678,1.871,0,2.586l0.205,0.215c0.678,0.713,1.777,0.713,2.455,0
			l4.465-4.697c1.693,1.783,3.328,3.504,4.463,4.697c0.678,0.713,1.777,0.713,2.455,0l0.205-0.215c0.678-0.715,0.678-1.873,0-2.586
			l-4.463-4.697l-1.207-1.27c1.441-0.156,3.648-0.568,5.26-1.656C32.634,27.505,33.476,26.743,32.729,25.167z"/>
	</g>
</g>
</svg>
