<?xml version="1.0" encoding="utf-8"?>
<!-- Generator: Adobe Illustrator 16.0.0, SVG Export Plug-In . SVG Version: 6.00 Build 0)  -->
<!DOCTYPE svg PUBLIC "-//W3C//DTD SVG 1.1//EN" "http://www.w3.org/Graphics/SVG/1.1/DTD/svg11.dtd">
<svg version="1.1" id="Layer_1" xmlns="http://www.w3.org/2000/svg" xmlns:xlink="http://www.w3.org/1999/xlink" x="0px" y="0px"
	 viewBox="0 0 17.084 17.083" enable-background="new 0 0 17.084 17.083" xml:space="preserve">
<circle fill-rule="evenodd" clip-rule="evenodd" fill="#D3D4DA" cx="8.542" cy="8.542" r="8.542"/>
<path fill="#FFFFFF" d="M8.542-1.458c-5.5,0-9.999,4.5-9.999,10c0,5.501,4.5,10.001,9.999,10.001c5.498,0,9.998-4.5,9.998-10.001
	C18.54,3.042,14.04-1.458,8.542-1.458L8.542-1.458z M8.542,16.542c-4.4,0-8-3.599-8-8.001c0-4.399,3.6-8,8-8
	c4.398,0,7.998,3.601,7.998,8C16.54,12.944,12.94,16.542,8.542,16.542L8.542,16.542z"/>
<path fill-rule="evenodd" clip-rule="evenodd" fill="#FFFFFF" d="M5.542,7.542h5.998v2.001H5.542V7.542z"/>
<path fill-rule="evenodd" clip-rule="evenodd" fill="#FFFFFF" d="M7.542,5.542h2v6.001h-2V5.542z"/>
</svg>
