<?xml version="1.0" encoding="utf-8"?>
<!-- Generator: Adobe Illustrator 16.0.0, SVG Export Plug-In . SVG Version: 6.00 Build 0)  -->
<!DOCTYPE svg PUBLIC "-//W3C//DTD SVG 1.1//EN" "http://www.w3.org/Graphics/SVG/1.1/DTD/svg11.dtd">
<svg version="1.1" id="Layer_1" xmlns="http://www.w3.org/2000/svg" xmlns:xlink="http://www.w3.org/1999/xlink" x="0px" y="0px"
	 width="64.981px" height="60.861px" viewBox="0 0 64.981 60.861" enable-background="new 0 0 64.981 60.861" xml:space="preserve">
<g>
	<path fill-rule="evenodd" clip-rule="evenodd" fill="#292C33" d="M36.374,26.439c-0.972-1.709-2.645-2.682-4.915-2.682h-0.563v8.16
		l-7.008,7.008V17.711h7.748c3.871,0,7.225,1.429,9.529,3.937L36.374,26.439z M19.653,43.159h-4.355l-0.916-4.288H9.206l-0.88,4.288
		H1l7.325-25.448h6.973l6.661,23.142L19.653,43.159z M11.776,26.322l-1.655,8.049h3.346L11.776,26.322z M32.859,37.024
		c2.255-0.405,3.701-1.861,4.233-4.233l6.65-6.65c0.433,1.359,0.677,2.851,0.677,4.47c0,7.873-5.494,12.548-12.784,12.548h-4.911
		L32.859,37.024z M55.191,37.605c2.184,0,2.711-0.949,2.711-2.039c0-3.339-12.114-0.949-12.114-10.369
		c0-0.399,0.039-0.804,0.106-1.209l6.238-6.237c0.866-0.201,1.819-0.321,2.883-0.321c6.797,0,9.896,3.409,9.896,8.26l-6.445,1.054
		c0-1.968-0.986-3.444-3.275-3.444c-1.655,0-2.395,0.809-2.395,2.074c0,3.375,12.185,1.617,12.185,10.896
		c0,3.866-2.5,7.101-9.966,7.171c-6.832,0.07-9.368-4.218-9.368-8.12l6.41-1.055C52.057,36.094,52.867,37.605,55.191,37.605z"/>
	<path fill-rule="evenodd" clip-rule="evenodd" fill="#EE3443" d="M0.732,56.594L56.594,0.732c0.976-0.977,2.559-0.977,3.536,0
		c0.976,0.976,0.976,2.559,0,3.535L4.268,60.129c-0.976,0.977-2.559,0.977-3.535,0C-0.244,59.153-0.244,57.57,0.732,56.594z"/>
</g>
</svg>
