<?xml version="1.0" encoding="utf-8"?>
<!-- Generator: Adobe Illustrator 16.0.0, SVG Export Plug-In . SVG Version: 6.00 Build 0)  -->
<!DOCTYPE svg PUBLIC "-//W3C//DTD SVG 1.1//EN" "http://www.w3.org/Graphics/SVG/1.1/DTD/svg11.dtd">
<svg version="1.1" id="Layer_1" xmlns="http://www.w3.org/2000/svg" xmlns:xlink="http://www.w3.org/1999/xlink" x="0px" y="0px"
	 width="63.998px" height="64.995px" viewBox="0 0 63.998 64.995" enable-background="new 0 0 63.998 64.995" xml:space="preserve">
<g>
	<path fill="#292C33" d="M34.84,58.474c-0.604-2.038-1.013-8.504-1.013-13.561c0-0.619-0.159-1.201-0.438-1.706
		c0.279-0.627,0.438-1.319,0.438-2.047v-9.259c0-2.771-2.235-5.026-4.983-5.026h-4.711c-0.043-0.571-0.073-1.142-0.091-1.697
		c-0.02-0.5-0.026-0.965-0.028-1.422c-0.007-0.482,0.001-0.876,0.021-1.219c0.041-0.74,0.128-1.457,0.258-2.097
		c0.14-0.686,0.293-1.131,0.353-1.292c0.011-0.028,0.021-0.055,0.029-0.083c0.039-0.11,0.071-0.193,0.093-0.241
		c1.93-3.714,0.523-8.324-3.152-10.3c-1.086-0.583-2.308-0.892-3.533-0.896c-1.227,0.005-2.448,0.313-3.533,0.896
		c-3.675,1.976-5.081,6.586-3.152,10.3c0.021,0.047,0.055,0.13,0.093,0.241c0.01,0.028,0.02,0.055,0.03,0.083
		c0.059,0.159,0.212,0.605,0.352,1.292c0.13,0.64,0.218,1.357,0.258,2.097c0.021,0.342,0.028,0.736,0.022,1.219
		c-0.003,0.457-0.009,0.922-0.029,1.422c-0.017,0.556-0.047,1.126-0.09,1.697H7.32c-2.749,0-4.984,2.255-4.984,5.026v9.259
		c0,0.729,0.158,1.42,0.437,2.047c-0.277,0.505-0.438,1.086-0.438,1.706c0,5.055-0.409,11.522-1.013,13.561
		c-1.237,1.029-1.475,2.482-1.243,3.562c0.638,2.96,3.714,2.96,4.725,2.96c2.35,0,6.585-0.416,6.764-0.434
		c0.272-0.028,0.538-0.087,0.788-0.173c0.269,0.068,0.548,0.104,0.831,0.104l4.895,0.024l4.895-0.024
		c0.284-0.001,0.562-0.037,0.831-0.104c0.25,0.086,0.515,0.145,0.788,0.173c0.179,0.017,4.415,0.434,6.765,0.434
		c1.01,0,4.088,0,4.723-2.96C36.314,60.957,36.078,59.502,34.84,58.474z M24.995,61.196l-1.869-8.225l-0.936,8.145l-9.048-0.004
		l-1.976-4.796v4.88c0,0-9.491,0.938-7.443,0c2.047-0.938,2.047-16.142,2.047-16.142h12.311h12.312c0,0,0,15.204,2.047,16.142
		C34.485,62.134,24.995,61.196,24.995,61.196z"/>
	<path fill="#EE3443" d="M49.286,0H33.818l-7.762,23.711h5.074c1.899,0,3.584,0.928,4.645,2.354l0.262-0.997l4.891-14.638
		l1.591-0.009l5.125,15.651h-11.86c0.725,0.978,1.16,2.187,1.16,3.499v6.808h12.868l2.272,8.716h11.914L49.286,0z"/>
</g>
</svg>
