<?xml version="1.0" encoding="utf-8"?>
<!-- Generator: Adobe Illustrator 16.0.0, SVG Export Plug-In . SVG Version: 6.00 Build 0)  -->
<!DOCTYPE svg PUBLIC "-//W3C//DTD SVG 1.1//EN" "http://www.w3.org/Graphics/SVG/1.1/DTD/svg11.dtd">
<svg version="1.1" id="Layer_1" xmlns="http://www.w3.org/2000/svg" xmlns:xlink="http://www.w3.org/1999/xlink" x="0px" y="0px"
	 width="64.016px" height="49.996px" viewBox="0 0 64.016 49.996" enable-background="new 0 0 64.016 49.996" xml:space="preserve">
<g>
	<path fill="#292C33" d="M57.419,21.47c-3.333,2.362-8.012,5.505-10.121,5.505c-0.418,0-0.552-0.125-0.65-0.242
		c-0.861-1.049-0.628-4.73,0.695-10.937c0.131-0.614-0.197-1.232-0.781-1.475c-0.582-0.245-1.26-0.045-1.613,0.475
		c-4.553,6.71-6.639,8.117-7.583,8.117c-1.341,0-2.703-3.812-4.056-11.329c-0.106-0.6-0.619-1.037-1.228-1.071v-0.008
		c-0.013,0-0.025,0.003-0.038,0.003s-0.027-0.003-0.039-0.003v0.008c-0.606,0.034-1.117,0.472-1.227,1.071
		c-1.354,7.518-2.718,11.329-4.057,11.329c-0.946,0-3.029-1.408-7.582-8.117c-0.353-0.52-1.03-0.72-1.615-0.475
		c-0.584,0.242-0.911,0.86-0.78,1.475c1.322,6.206,1.558,9.888,0.694,10.937c-0.096,0.119-0.232,0.242-0.649,0.242
		c-2.11,0-6.788-3.142-10.122-5.505c-0.527-0.374-1.25-0.312-1.708,0.14c-0.457,0.452-0.518,1.166-0.14,1.688
		c7.623,9.637,6.188,20.695,6.188,20.695c-0.028,0.153-0.043,0.31-0.043,0.475c0,2.718,3.849,3.792,7.201,4.425
		c3.694,0.7,8.56,1.09,13.729,1.104v0.001c0.05,0,0.1,0,0.149-0.001c0.05,0.001,0.099,0.001,0.149,0.001v-0.001
		c5.168-0.014,10.034-0.403,13.727-1.104c3.353-0.633,7.203-1.71,7.203-4.425c0-0.165-0.015-0.32-0.042-0.475
		c0,0-1.435-11.062,6.188-20.695c0.378-0.521,0.318-1.235-0.14-1.688C58.669,21.158,57.947,21.097,57.419,21.47z M32.192,46.247
		h-0.011c-0.047,0-0.093,0.002-0.14,0.002s-0.091-0.002-0.138-0.002h-0.011c-8.215-0.024-13.646-0.969-16.043-1.779
		c2.397-0.812,7.828-1.757,16.043-1.78h0.02c0.043,0,0.085,0,0.129,0c0.043,0,0.084,0,0.129,0h0.02
		c8.215,0.023,13.645,0.968,16.043,1.78C45.837,45.278,40.407,46.223,32.192,46.247z"/>
	<g>
		<g>
			<path fill="#78C143" d="M32.044,0c-2.213,0-4.007,1.771-4.007,3.959s1.794,3.959,4.007,3.959c2.212,0,4.006-1.771,4.006-3.959
				S34.256,0,32.044,0z M15.133,5.443c-1.844,0-3.338,1.477-3.338,3.299s1.494,3.3,3.338,3.3s3.339-1.478,3.339-3.3
				S16.977,5.443,15.133,5.443z M48.676,5.443c-1.844,0-3.338,1.477-3.338,3.299s1.494,3.3,3.338,3.3s3.339-1.478,3.339-3.3
				S50.52,5.443,48.676,5.443z M2.251,15.92C1.008,15.92,0,16.915,0,18.144s1.008,2.225,2.251,2.225c1.242,0,2.25-0.996,2.25-2.225
				S3.493,15.92,2.251,15.92z M61.766,15.92c-1.243,0-2.251,0.995-2.251,2.224s1.008,2.225,2.251,2.225s2.25-0.996,2.25-2.225
				S63.009,15.92,61.766,15.92z"/>
		</g>
	</g>
</g>
</svg>
