<?xml version="1.0" encoding="utf-8"?>
<!-- Generator: Adobe Illustrator 16.0.0, SVG Export Plug-In . SVG Version: 6.00 Build 0)  -->
<!DOCTYPE svg PUBLIC "-//W3C//DTD SVG 1.1//EN" "http://www.w3.org/Graphics/SVG/1.1/DTD/svg11.dtd">
<svg version="1.1" id="Layer_1" xmlns="http://www.w3.org/2000/svg" xmlns:xlink="http://www.w3.org/1999/xlink" x="0px" y="0px"
	 width="53.014px" height="63.023px" viewBox="0 0 53.014 63.023" enable-background="new 0 0 53.014 63.023" xml:space="preserve">
<g>
	<g>
		<g>
			<path fill="#EE3443" d="M26.507,9.229c1.171,0,2.117-0.955,2.117-2.133V2.133C28.625,0.955,27.678,0,26.507,0
				c-1.17,0-2.117,0.955-2.117,2.133v4.962C24.391,8.274,25.337,9.229,26.507,9.229z M12.615,12.336
				c0.416,0.575,1.061,0.881,1.717,0.881c0.43,0,0.865-0.133,1.242-0.408c0.944-0.692,1.155-2.025,0.469-2.978l-2.894-4.017
				c-0.688-0.952-2.01-1.167-2.958-0.473c-0.945,0.691-1.156,2.025-0.47,2.979L12.615,12.336z M40.396,43.606
				c-0.687-0.952-2.009-1.164-2.957-0.472c-0.944,0.692-1.155,2.026-0.467,2.979l2.896,4.016c0.413,0.574,1.059,0.879,1.714,0.879
				c0.432,0,0.866-0.132,1.242-0.407c0.945-0.693,1.155-2.027,0.468-2.98L40.396,43.606z M7.459,19.492l-4.685-1.536
				c-1.123-0.364-2.307,0.249-2.669,1.37c-0.362,1.119,0.246,2.323,1.358,2.688l4.685,1.535c0.219,0.071,0.438,0.105,0.655,0.105
				c0.893,0,1.722-0.573,2.014-1.475C9.18,21.061,8.572,19.856,7.459,19.492z M51.548,33.928l-4.684-1.533
				c-1.112-0.362-2.306,0.25-2.667,1.37c-0.362,1.12,0.248,2.324,1.359,2.688l4.686,1.533c0.217,0.071,0.436,0.105,0.653,0.105
				c0.893,0,1.722-0.574,2.014-1.475C53.27,35.495,52.662,34.292,51.548,33.928z M6.151,32.395l-4.687,1.531
				c-1.112,0.364-1.722,1.566-1.36,2.688c0.29,0.902,1.12,1.476,2.014,1.476c0.215,0,0.437-0.035,0.653-0.105l4.687-1.531
				c1.112-0.364,1.723-1.567,1.36-2.687C8.458,32.645,7.273,32.033,6.151,32.395z M46.211,23.655c0.217,0,0.436-0.035,0.653-0.105
				l4.684-1.533c1.113-0.365,1.722-1.568,1.36-2.688c-0.362-1.12-1.561-1.732-2.666-1.37l-4.686,1.533
				c-1.112,0.364-1.722,1.567-1.359,2.688C44.489,23.082,45.319,23.655,46.211,23.655z M15.574,43.135
				c-0.942-0.696-2.272-0.483-2.956,0.47l-2.898,4.014c-0.688,0.953-0.479,2.288,0.467,2.98c0.375,0.275,0.811,0.408,1.242,0.408
				c0.655,0,1.301-0.304,1.714-0.878l2.899-4.014C16.73,45.163,16.52,43.829,15.574,43.135z M37.442,12.81
				c0.376,0.275,0.812,0.407,1.242,0.407c0.655,0,1.301-0.305,1.715-0.88l2.895-4.016c0.687-0.953,0.476-2.287-0.47-2.979
				c-0.95-0.696-2.269-0.481-2.957,0.473l-2.895,4.016C36.286,10.784,36.497,12.118,37.442,12.81z M42.021,28.29
				c0-8.431-6.939-15.266-15.5-15.266c-8.562,0-15.501,6.835-15.501,15.266c0,3.556,1.242,6.822,3.316,9.415
				c1.818,2.272,3.541,4.752,5.033,7.249v5.071h14.215v-4.936c1.479-2.428,3.391-5.223,5.117-7.381
				C40.779,35.114,42.021,31.849,42.021,28.29z"/>
		</g>
	</g>
	<g>
		<g>
			<path fill="#292C33" d="M32.375,52.021H20.663c-0.906,0-1.643,0.672-1.643,1.499c0,0.828,0.736,1.5,1.643,1.5h11.713
				c0.907,0,1.644-0.671,1.644-1.5C34.019,52.693,33.283,52.021,32.375,52.021z M23.553,60.582c0.218,1.379,1.45,2.441,2.954,2.441
				c1.502,0,2.737-1.062,2.954-2.441c1.967-0.111,3.53-1.657,3.53-3.566H20.015C20.015,58.926,21.583,60.473,23.553,60.582z"/>
		</g>
	</g>
</g>
</svg>
