<?xml version="1.0" encoding="utf-8"?>
<!-- Generator: Adobe Illustrator 16.0.0, SVG Export Plug-In . SVG Version: 6.00 Build 0)  -->
<!DOCTYPE svg PUBLIC "-//W3C//DTD SVG 1.1//EN" "http://www.w3.org/Graphics/SVG/1.1/DTD/svg11.dtd">
<svg version="1.1" id="Layer_1" xmlns="http://www.w3.org/2000/svg" xmlns:xlink="http://www.w3.org/1999/xlink" x="0px" y="0px"
	 width="64.005px" height="47.979px" viewBox="0 0 64.005 47.979" enable-background="new 0 0 64.005 47.979" xml:space="preserve">
<g>
	<path fill="#292C33" d="M0,0v47.979h64.005V0H0z M60.005,43.98H4V3.998h56.004V43.98z"/>
	<g>
		<g>
			<path fill="#EE3443" d="M49.004,19.991c3.314,0,6-2.685,6-5.998c0-3.312-2.687-5.997-6-5.997s-6,2.685-6,5.997
				C43.003,17.306,45.69,19.991,49.004,19.991z M39.718,24.015c-3.667,0-3.288,7.723-8.31,7.723c-5.01,0-7.737-19.759-13.969-19.759
				c-6.228,0-10.423,28.009-10.423,28.009h48.994C56.011,39.988,43.389,24.015,39.718,24.015z"/>
		</g>
	</g>
</g>
</svg>
