<?xml version="1.0" encoding="utf-8"?>
<!-- Generator: Adobe Illustrator 16.0.0, SVG Export Plug-In . SVG Version: 6.00 Build 0)  -->
<!DOCTYPE svg PUBLIC "-//W3C//DTD SVG 1.1//EN" "http://www.w3.org/Graphics/SVG/1.1/DTD/svg11.dtd">
<svg version="1.1" id="Layer_1" xmlns="http://www.w3.org/2000/svg" xmlns:xlink="http://www.w3.org/1999/xlink" x="0px" y="0px"
	 width="64.021px" height="61.994px" viewBox="0 0 64.021 61.994" enable-background="new 0 0 64.021 61.994" xml:space="preserve">
<g>
	<path fill="#292C33" d="M41.108,40.073l-2.713,9.762c-0.032,0.117-0.1,0.22-0.193,0.298l-8.342,6.942
		c-0.108,0.09-0.242,0.138-0.379,0.138c-0.059,0-0.116-0.009-0.173-0.026c-0.191-0.06-0.34-0.21-0.396-0.401l-2.866-9.856
		c-2.088,0.085-3.931-0.394-5.447-1.437l-3.797,3.122c-0.241,0.196-0.591,0.177-0.807-0.05l-2.819-2.969
		c-0.109-0.115-0.167-0.27-0.162-0.43c0.005-0.159,0.075-0.31,0.192-0.417l3.759-3.45c-0.321-0.876-0.897-3.06-0.286-6.382
		l-9.661-3.53c-0.188-0.068-0.328-0.228-0.374-0.422c-0.046-0.195,0.01-0.399,0.148-0.545l7.48-7.865
		c0.087-0.092,0.2-0.152,0.325-0.176l9.854-1.764c1.854-2.145,4.012-4.315,6.415-6.456C44.701,1.839,55.516,0,60.73,0
		c1.717,0,2.663,0.209,2.703,0.217c0.235,0.053,0.414,0.242,0.455,0.479c0.105,0.612,2.355,15.219-16.637,34.227
		C47.225,34.946,44.679,37.416,41.108,40.073z M40.21,29.449c3.304,0,5.983-2.681,5.983-5.988c0-3.307-2.678-5.987-5.983-5.987
		s-5.983,2.681-5.983,5.987C34.228,26.769,36.906,29.449,40.21,29.449z"/>
	<g>
		<g>
			<path fill="#78C143" d="M19.915,55.125l-1.361-4.046c-0.057-0.17-0.198-0.3-0.374-0.343s-0.362,0.008-0.491,0.134L7.156,61.087
				c-0.153,0.149-0.202,0.377-0.122,0.576c0.081,0.198,0.273,0.329,0.488,0.329h5.44c0.136,0,0.266-0.053,0.364-0.146l6.454-6.173
				C19.927,55.532,19.979,55.318,19.915,55.125z M13.601,50.458l-2.339-2.869c-0.097-0.112-0.236-0.342-0.384-0.342h-0.014
				c-0.143,0-0.281,0.219-0.381,0.323L0.145,58.502C0.053,58.6,0,58.811,0,58.946v2.521c0,0.29,0.235,0.526,0.526,0.526h2.25
				c0.141,0,0.277-0.058,0.376-0.158l10.427-10.664C13.771,50.976,13.78,50.667,13.601,50.458z M0.322,54.877
				c0.065,0.027,0.135,0.041,0.202,0.041c0.136,0,0.271-0.053,0.372-0.153l10.619-10.54c0.113-0.113,0.169-0.272,0.152-0.431
				c-0.017-0.16-0.105-0.302-0.241-0.388l-3.084-1.955c-0.203-0.131-0.474-0.104-0.648,0.067l-7.534,7.35
				C0.058,48.966,0,49.104,0,49.245v5.147C0,54.604,0.127,54.796,0.322,54.877z"/>
		</g>
	</g>
</g>
</svg>
