<?xml version="1.0" encoding="utf-8"?>
<!-- Generator: Adobe Illustrator 16.0.0, SVG Export Plug-In . SVG Version: 6.00 Build 0)  -->
<!DOCTYPE svg PUBLIC "-//W3C//DTD SVG 1.1//EN" "http://www.w3.org/Graphics/SVG/1.1/DTD/svg11.dtd">
<svg version="1.1" id="Layer_1" xmlns="http://www.w3.org/2000/svg" xmlns:xlink="http://www.w3.org/1999/xlink" x="0px" y="0px"
	 width="64px" height="53px" viewBox="0 0 64 53" enable-background="new 0 0 64 53" xml:space="preserve">
<g>
	<g>
		<g>
			<path fill-rule="evenodd" clip-rule="evenodd" fill="#292C33" d="M60,0H4C1.791,0,0,1.791,0,4v36c0,2.209,1.791,4,4,4h21v5h-4
				c-1.104,0-2,0.896-2,2s0.896,2,2,2h22c1.104,0,2-0.896,2-2s-0.896-2-2-2h-4v-5h21c2.209,0,4-1.791,4-4V4C64,1.791,62.209,0,60,0z
				 M60,40H4V4h56V40z"/>
		</g>
	</g>
	<path fill="#78C143" d="M43.033,13.011H20.966c-0.525,0-0.951,0.415-0.951,0.928V30.06c0,0.513,0.426,0.929,0.951,0.929h22.068
		c0.524,0,0.951-0.416,0.951-0.929V13.939C43.984,13.426,43.559,13.011,43.033,13.011z M28.608,25.626l0.825-2.818h-3.079
		l-0.825,2.818h-1.89l2.123-7.254h1.891l-0.874,2.984h3.079l0.873-2.984h1.891l-2.124,7.254H28.608L28.608,25.626z M40.191,22
		c-0.628,2.146-2.696,3.627-5.085,3.627h-3.122l1.403-4.793h1.89l-0.972,3.321h1.348c1.157,0,2.24-0.87,2.613-2.145
		c0.376-1.285-0.236-2.166-1.437-2.166h-3.153l0.431-1.472h3.196C39.64,18.373,40.822,19.844,40.191,22z"/>
</g>
</svg>
