<?xml version="1.0" encoding="utf-8"?>
<!-- Generator: Adobe Illustrator 18.0.0, SVG Export Plug-In . SVG Version: 6.00 Build 0)  -->
<!DOCTYPE svg PUBLIC "-//W3C//DTD SVG 1.1//EN" "http://www.w3.org/Graphics/SVG/1.1/DTD/svg11.dtd">
<svg version="1.1" id="Layer_1" xmlns="http://www.w3.org/2000/svg" xmlns:xlink="http://www.w3.org/1999/xlink" x="0px" y="0px"
	 viewBox="0 0 16 16" enable-background="new 0 0 16 16" xml:space="preserve">
<path fill="#8E95A2" d="M0.5,7.7l7.2-7.2C8,0.2,8.4,0,8.8,0h5.6C15.3,0,16,0.7,16,1.6v5.6c0,0.4-0.2,0.8-0.5,1.1l-7.2,7.2
	C8,15.8,7.6,16,7.2,16c-0.4,0-0.8-0.2-1.1-0.5L0.5,9.9C0.2,9.6,0,9.2,0,8.8C0,8.4,0.2,8,0.5,7.7z M13.2,4c0.7,0,1.2-0.5,1.2-1.2
	c0-0.7-0.5-1.2-1.2-1.2c-0.7,0-1.2,0.5-1.2,1.2C12,3.5,12.5,4,13.2,4z"/>
</svg>
