<?xml version="1.0" encoding="utf-8"?>
<!-- Generator: Adobe Illustrator 16.0.0, SVG Export Plug-In . SVG Version: 6.00 Build 0)  -->
<!DOCTYPE svg PUBLIC "-//W3C//DTD SVG 1.1//EN" "http://www.w3.org/Graphics/SVG/1.1/DTD/svg11.dtd">
<svg version="1.1" id="Layer_1" xmlns="http://www.w3.org/2000/svg" xmlns:xlink="http://www.w3.org/1999/xlink" x="0px" y="0px"
	  viewBox="0 0 48 48" enable-background="new 0 0 48 48" xml:space="preserve">
<path fill="#FFFFFF" d="M38.99,14.843c-1.103,0.483-2.287,0.806-3.535,0.952c1.276-0.746,2.25-1.933,2.708-3.347
	c-1.187,0.692-2.505,1.196-3.907,1.468c-1.122-1.178-2.72-1.914-4.49-1.914c-3.398,0-6.15,2.711-6.15,6.057
	c0,0.472,0.054,0.938,0.156,1.384c-5.11-0.258-9.643-2.669-12.678-6.331c-0.528,0.895-0.834,1.934-0.834,3.047
	c0,2.099,1.089,3.953,2.736,5.04c-1.007-0.033-1.957-0.305-2.785-0.759c-0.001,0.025-0.001,0.052-0.001,0.077
	c0,2.933,2.121,5.384,4.935,5.94c-0.514,0.135-1.057,0.214-1.622,0.214c-0.396,0-0.779-0.036-1.154-0.108
	c0.779,2.405,3.05,4.157,5.741,4.207c-2.097,1.623-4.752,2.593-7.633,2.593c-0.495,0-0.987-0.026-1.468-0.085
	c2.721,1.718,5.957,2.721,9.431,2.721c11.312,0,17.499-9.231,17.499-17.237c0-0.259-0.007-0.524-0.018-0.781
	C37.122,17.123,38.167,16.057,38.99,14.843z"/>
</svg>
